<?xml version="1.0" encoding="UTF-8" standalone="no"?>
<svg
   width="64"
   height="64"
   version="1.1"
   id="svg73"
   sodipodi:docname="kmag.svg"
   inkscape:version="1.4.4 (dcaf3e7d9e, 2026-05-05)"
   xmlns:inkscape="http://www.inkscape.org/namespaces/inkscape"
   xmlns:sodipodi="http://sodipodi.sourceforge.net/DTD/sodipodi-0.dtd"
   xmlns="http://www.w3.org/2000/svg"
   xmlns:svg="http://www.w3.org/2000/svg"
   xmlns:rdf="http://www.w3.org/1999/02/22-rdf-syntax-ns#"
   xmlns:cc="http://creativecommons.org/ns#"
   xmlns:dc="http://purl.org/dc/elements/1.1/">
  <metadata
     id="metadata77">
    <rdf:RDF>
      <cc:Work
         rdf:about="">
        <dc:format>image/svg+xml</dc:format>
        <dc:type
           rdf:resource="http://purl.org/dc/dcmitype/StillImage" />
      </cc:Work>
    </rdf:RDF>
  </metadata>
  <sodipodi:namedview
     pagecolor="#f5f7fa"
     bordercolor="#666666"
     borderopacity="1"
     objecttolerance="10"
     gridtolerance="10"
     guidetolerance="10"
     inkscape:pageopacity="0"
     inkscape:pageshadow="2"
     inkscape:window-width="1348"
     inkscape:window-height="718"
     id="namedview75"
     showgrid="false"
     inkscape:zoom="4.4470387"
     inkscape:cx="40.926111"
     inkscape:cy="18.439237"
     inkscape:window-x="0"
     inkscape:window-y="0"
     inkscape:window-maximized="0"
     inkscape:current-layer="g877"
     inkscape:document-rotation="0"
     inkscape:pagecheckerboard="0"
     inkscape:showpageshadow="2"
     inkscape:deskcolor="#d1d1d1" />
  <defs
     id="defs29">
    <filter
       style="color-interpolation-filters:sRGB;"
       inkscape:label="Blur"
       id="filter14"
       x="-0.085264133"
       y="-0.085264133"
       width="1.1705283"
       height="1.1705283">
      <feGaussianBlur
         stdDeviation="1.3 1.3"
         result="blur"
         id="feGaussianBlur14" />
    </filter>
  </defs>
  <g
     id="g877"
     transform="matrix(1.1,0,0,1.1,-3.1845928,-3.2065454)">
    <path
       style="fill:#f5f7fa;stroke-width:0.204426;fill-opacity:1"
       d=""
       id="path3" />
    <path
       style="fill:#dfdfdf;fill-opacity:1;stroke:none;stroke-width:0.866088;stroke-dasharray:none;stroke-opacity:0.6"
       d="m 37.623061,5.7952726 c -11.312839,0 -20.659529,9.2637974 -20.659529,20.5895424 0,4.304715 1.453732,8.265025 3.735088,11.581818 L 6.9254707,51.771019 a 3.755634,3.7641439 0 0 0 5.2526623,5.381337 L 25.951279,43.348013 c 3.314104,2.286959 7.369334,3.626563 11.67216,3.626563 11.313202,0 20.542994,-9.263818 20.542994,-20.589572 0,-11.325747 -9.229792,-20.5895426 -20.542994,-20.5895426 z m 0,7.4871084 c 7.273728,0 13.072817,5.820475 13.072817,13.102434 0,7.281591 -5.799089,13.102447 -13.072817,13.102447 -7.273708,0 -13.072817,-5.820856 -13.072817,-13.102447 0,-7.281958 5.799109,-13.102434 13.072817,-13.102434 z"
       id="path8" />
  </g>
</svg>
