<?xml version="1.0" encoding="UTF-8" standalone="no"?>
<svg
   width="64"
   height="64"
   version="1.1"
   id="svg73"
   sodipodi:docname="knetattach.svg"
   inkscape:version="1.4.4 (dcaf3e7d9e, 2026-05-05)"
   xmlns:inkscape="http://www.inkscape.org/namespaces/inkscape"
   xmlns:sodipodi="http://sodipodi.sourceforge.net/DTD/sodipodi-0.dtd"
   xmlns="http://www.w3.org/2000/svg"
   xmlns:svg="http://www.w3.org/2000/svg"
   xmlns:rdf="http://www.w3.org/1999/02/22-rdf-syntax-ns#"
   xmlns:cc="http://creativecommons.org/ns#"
   xmlns:dc="http://purl.org/dc/elements/1.1/">
  <metadata
     id="metadata77">
    <rdf:RDF>
      <cc:Work
         rdf:about="">
        <dc:format>image/svg+xml</dc:format>
        <dc:type
           rdf:resource="http://purl.org/dc/dcmitype/StillImage" />
      </cc:Work>
    </rdf:RDF>
  </metadata>
  <sodipodi:namedview
     pagecolor="#f5f7fa"
     bordercolor="#666666"
     borderopacity="1"
     objecttolerance="10"
     gridtolerance="10"
     guidetolerance="10"
     inkscape:pageopacity="0"
     inkscape:pageshadow="2"
     inkscape:window-width="1068"
     inkscape:window-height="603"
     id="namedview75"
     showgrid="false"
     inkscape:zoom="4.4470387"
     inkscape:cx="40.701242"
     inkscape:cy="18.101934"
     inkscape:window-x="0"
     inkscape:window-y="0"
     inkscape:window-maximized="0"
     inkscape:current-layer="g877"
     inkscape:document-rotation="0"
     inkscape:pagecheckerboard="0"
     inkscape:showpageshadow="2"
     inkscape:deskcolor="#d1d1d1" />
  <defs
     id="defs29">
    <filter
       style="color-interpolation-filters:sRGB;"
       inkscape:label="Blur"
       id="filter9"
       x="-0.047762285"
       y="-0.047489063"
       width="1.0955246"
       height="1.0949781">
      <feGaussianBlur
         stdDeviation="1 1"
         result="blur"
         id="feGaussianBlur9" />
    </filter>
    <filter
       style="color-interpolation-filters:sRGB"
       inkscape:label="Blur"
       id="filter9-7"
       x="-0.047762285"
       y="-0.047489063"
       width="1.0955246"
       height="1.0949781">
      <feGaussianBlur
         stdDeviation="1 1"
         result="blur"
         id="feGaussianBlur9-8" />
    </filter>
    <filter
       style="color-interpolation-filters:sRGB;"
       inkscape:label="Blur"
       id="filter14"
       x="-0.085264133"
       y="-0.085264133"
       width="1.1705283"
       height="1.1705283">
      <feGaussianBlur
         stdDeviation="1.3 1.3"
         result="blur"
         id="feGaussianBlur14" />
    </filter>
  </defs>
  <g
     id="g877"
     transform="matrix(1.1,0,0,1.1,-3.1845928,-3.2065454)">
    <path
       style="fill:#f5f7fa;stroke-width:0.204426;fill-opacity:1"
       d=""
       id="path3" />
    <path
       style="fill:#dfdfdf;fill-opacity:1;stroke:none;stroke-width:0.498616;stroke-dasharray:none;stroke-opacity:0.6"
       d="M 29.840506,58.178197 C 24.671367,57.742615 19.708474,55.754097 15.54515,52.450387 14.462844,51.591549 12.153829,49.25044 11.298313,48.144523 8.1827865,44.117109 6.3834636,39.647017 5.821208,34.537614 5.683919,33.289942 5.7060402,30.418043 5.8633523,29.070552 6.7760771,21.25198 11.020628,14.35095 17.569991,10.037236 21.008065,7.7727556 24.815686,6.3771767 28.990072,5.8515152 c 1.277208,-0.1608271 5.038429,-0.1375673 6.297272,0.038962 4.182043,0.5864168 7.708238,1.9044057 11.144406,4.1654498 4.297803,2.828011 7.706282,6.906756 9.728794,11.641918 1.005622,2.354404 1.647919,4.783512 1.949456,7.372722 0.155817,1.337979 0.177359,4.113473 0.04211,5.426563 -0.519104,5.040109 -2.352504,9.6087 -5.47677,13.647407 -0.855511,1.105919 -3.164529,3.447024 -4.246837,4.305864 -5.350224,4.245545 -11.970212,6.285467 -18.588013,5.727807 z M 28.747094,46.686639 v -3.80669 h -2.470302 c -1.358668,0 -2.470302,0.03039 -2.470302,0.06752 0,0.17367 0.861006,2.232155 1.259517,3.011237 0.753216,1.472533 1.50605,2.53176 2.546541,3.582953 0.518091,0.52342 0.985311,0.95167 1.038266,0.95167 0.073,0 0.09628,-0.919945 0.09628,-3.80669 z m 7.130068,3.371212 c 1.223264,-1.016976 2.537404,-2.908117 3.490112,-5.022526 0.345144,-0.766002 0.799903,-1.948468 0.799903,-2.079911 0,-0.04498 -0.998002,-0.07543 -2.470302,-0.07543 h -2.470298 v 3.806693 c 0,2.093681 0.02852,3.806696 0.06336,3.806696 0.03485,0 0.299104,-0.19597 0.587203,-0.435481 z M 23.233567,49.177192 c -0.910094,-1.403032 -1.95898,-3.642585 -2.579441,-5.507558 l -0.262722,-0.789685 h -2.382629 c -1.788345,0 -2.382631,0.02401 -2.382631,0.09637 0,0.203618 1.459531,2.010256 2.348812,2.907409 1.040701,1.04991 2.170388,1.974086 3.320962,2.716816 0.743995,0.480269 2.248,1.322384 2.365853,1.32468 0.03178,5.78e-4 -0.160922,-0.336014 -0.428204,-0.748066 z m 19.637299,-0.712636 c 1.27263,-0.844992 2.596968,-1.962361 3.523414,-2.97277 0.770169,-0.839978 1.950815,-2.358271 1.952273,-2.510596 6.73e-4,-0.07873 -0.527595,-0.101244 -2.374453,-0.101244 h -2.375421 l -0.248054,0.749189 c -0.63116,1.906258 -1.664191,4.140965 -2.529369,5.471663 -0.269551,0.414587 -0.49009,0.771663 -0.49009,0.7935 0,0.09786 1.577191,-0.789331 2.5417,-1.429746 z M 19.305312,37.919091 c -0.294762,-1.87417 -0.387942,-3.282323 -0.389899,-5.892279 -0.0017,-2.624299 0.09875,-4.176084 0.387746,-5.974229 l 0.107558,-0.669161 -3.043467,0.02121 -3.043465,0.02121 -0.226164,0.728944 c -1.101246,3.549441 -1.165659,7.440183 -0.182353,11.014501 0.147154,0.534893 0.306139,1.072771 0.353301,1.195268 l 0.08576,0.222737 h 3.028047 3.028042 z m 9.441782,-5.932773 v -6.60097 h -3.02848 -3.028472 l -0.04511,0.182235 c -0.114781,0.463876 -0.378197,2.574176 -0.465248,3.727495 -0.200524,2.656509 0.01023,6.800033 0.461383,9.069477 l 0.04425,0.222733 h 3.030821 3.030821 z m 12.58335,6.479296 c 0.07475,-0.194806 0.365366,-2.422305 0.454352,-3.482537 0.105105,-1.252284 0.105105,-4.741234 0,-5.993514 -0.08897,-1.060235 -0.379592,-3.287734 -0.454352,-3.482538 -0.04038,-0.105237 -0.455868,-0.121653 -3.075279,-0.121653 h -3.028588 v 6.60097 6.600972 h 3.028588 c 2.619411,0 3.034897,-0.01643 3.075279,-0.121654 z m 9.42372,-0.242794 c 0.228055,-0.644821 0.659798,-2.449485 0.794435,-3.320734 0.206157,-1.334056 0.247666,-3.72183 0.08854,-5.091996 -0.143818,-1.238217 -0.414504,-2.538299 -0.761069,-3.655306 l -0.226158,-0.728941 -3.025182,-0.02126 -3.025179,-0.02125 0.0546,0.385716 c 0.359249,2.536918 0.404198,3.228303 0.404198,6.217249 0,2.988946 -0.04497,3.680334 -0.404198,6.217253 l -0.0546,0.385716 3.020024,-0.02125 3.020025,-0.02126 z M 20.806542,19.877789 c 0.481542,-1.370345 0.700909,-1.888138 1.341816,-3.167203 0.52499,-1.047732 1.038544,-1.93635 1.387647,-2.401099 0.108757,-0.144769 0.17454,-0.263228 0.14619,-0.263228 -0.15543,0 -1.790082,0.912659 -2.610253,1.457352 -1.219862,0.810137 -2.284383,1.704996 -3.325652,2.795606 -0.755822,0.791632 -2.120147,2.497815 -2.120147,2.651388 0,0.03494 1.079139,0.05388 2.398084,0.04203 l 2.398085,-0.02145 z m 7.940552,-2.63229 c 0,-2.071406 -0.02956,-3.766195 -0.0657,-3.766195 -0.12924,0 -1.165281,0.941138 -1.604882,1.457881 -1.074072,1.262559 -2.129462,3.099343 -2.895364,5.039058 -0.20607,0.521888 -0.374672,0.968364 -0.374672,0.992173 0,0.02381 1.111635,0.0433 2.4703,0.0433 h 2.470301 z m 11.375155,3.583963 c -0.572843,-1.869354 -1.991207,-4.467325 -3.226132,-5.909209 -0.523677,-0.611438 -1.440578,-1.440949 -1.592755,-1.440949 -0.04729,0 -0.07682,1.446882 -0.07682,3.766195 v 3.766197 h 2.475758 2.475758 z m 8.22527,0.119936 c 0,-0.152564 -1.367212,-1.861575 -2.120144,-2.650189 -1.483103,-1.553376 -3.300921,-2.928765 -5.068028,-3.834538 -0.804953,-0.412597 -0.948968,-0.448909 -0.721088,-0.181813 0.226105,0.265016 1.029434,1.638177 1.454701,2.486572 0.447249,0.892266 1.184482,2.695652 1.510758,3.695558 l 0.178394,0.546706 h 2.382703 c 1.310489,0 2.382704,-0.02803 2.382704,-0.0623 z"
       id="path42" />
  </g>
</svg>
