<?xml version="1.0" encoding="UTF-8" standalone="no"?>
<svg
   width="64"
   height="64"
   version="1.1"
   id="svg73"
   sodipodi:docname="pulsar.svg"
   inkscape:version="1.4.3 (0d15f75042, 2025-12-25)"
   xmlns:inkscape="http://www.inkscape.org/namespaces/inkscape"
   xmlns:sodipodi="http://sodipodi.sourceforge.net/DTD/sodipodi-0.dtd"
   xmlns="http://www.w3.org/2000/svg"
   xmlns:svg="http://www.w3.org/2000/svg"
   xmlns:rdf="http://www.w3.org/1999/02/22-rdf-syntax-ns#"
   xmlns:cc="http://creativecommons.org/ns#"
   xmlns:dc="http://purl.org/dc/elements/1.1/">
  <metadata
     id="metadata77">
    <rdf:RDF>
      <cc:Work
         rdf:about="">
        <dc:format>image/svg+xml</dc:format>
        <dc:type
           rdf:resource="http://purl.org/dc/dcmitype/StillImage" />
      </cc:Work>
    </rdf:RDF>
  </metadata>
  <sodipodi:namedview
     pagecolor="#f5f7fa"
     bordercolor="#666666"
     borderopacity="1"
     objecttolerance="10"
     gridtolerance="10"
     guidetolerance="10"
     inkscape:pageopacity="0"
     inkscape:pageshadow="2"
     inkscape:window-width="1377"
     inkscape:window-height="886"
     id="namedview75"
     showgrid="false"
     inkscape:zoom="6.2890624"
     inkscape:cx="47.622361"
     inkscape:cy="45.316771"
     inkscape:window-x="264"
     inkscape:window-y="75"
     inkscape:window-maximized="0"
     inkscape:current-layer="g877"
     inkscape:document-rotation="0"
     inkscape:pagecheckerboard="0"
     inkscape:showpageshadow="2"
     inkscape:deskcolor="#d1d1d1" />
  <defs
     id="defs29" />
  <circle
     cx="32.516094"
     cy="31.877844"
     r="0"
     fill="url(#b)"
     stroke-width="1.5715"
     id="circle41"
     style="fill:url(#b)" />
  <g
     aria-label="GZ"
     transform="matrix(1.2212657,0,0,0.81882264,0.4960938,-0.1661539)"
     id="text93"
     style="font-weight:bold;font-size:11.5263px;line-height:1.25;font-family:sans-serif;-inkscape-font-specification:'sans-serif Bold';fill:#f2f2f2;stroke-width:0.288159" />
  <g
     id="g877"
     transform="matrix(1.1,0,0,1.1,-3.1845928,-3.2065454)">
    <path
       style="fill:#dfdfdf;fill-opacity:1;stroke-width:1.24618"
       d="M 59.092333,4.6001173 41.504968,19.337464 40.117969,22.904039 c -0.209358,-0.07852 -0.444887,-0.130864 -0.680416,-0.130864 -0.444885,0 -0.889775,0.183191 -1.229979,0.523397 -0.680417,0.681661 -0.680417,1.809453 0,2.491119 0.340204,0.341452 0.785094,0.524639 1.25615,0.524639 0.444887,0 0.889771,-0.183187 1.256151,-0.524639 0.523397,-0.523399 0.654243,-1.284817 0.392546,-1.914136 L 44.671516,22.484063 59.406372,4.9153898 Z M 41.842685,7.0912324 C 40.296172,7.1174168 38.671152,7.3280064 36.982574,7.7205558 35.310197,8.0881783 33.626608,8.6389923 31.954231,9.3206535 23.92259,5.9123463 15.87973,6.3310656 11.093146,11.103941 7.4156617,14.775194 6.2168361,20.439088 7.6773605,27.020177 8.0599374,28.69878 8.6032736,30.403559 9.2973978,32.08092 6.3925474,39.68637 6.2430072,46.765927 9.3472135,50.698877 L 10.857586,48.91559 C 8.8101132,45.191999 8.8076206,40.157427 10.584675,34.834982 c 1.419403,2.752817 3.230103,5.42837 5.383507,7.945657 l 1.434354,-1.704777 c -2.393916,-2.884913 -4.334223,-5.926842 -5.72122,-9.047279 1.821914,-4.089967 4.65075,-8.233527 8.380573,-11.957118 3.653805,-3.645081 7.762468,-6.528747 11.948391,-8.364371 3.050656,1.363323 6.12623,3.277457 9.039805,5.742402 l 1.722226,-1.44183 c -2.563398,-2.177081 -5.261384,-3.986536 -7.983045,-5.376029 0.897253,-0.28787 1.795748,-0.550811 2.688015,-0.7601717 4.486256,-0.9969443 8.447868,-0.6554922 11.447425,0.9956967 L 50.72295,9.3468247 C 48.267976,7.8003105 45.244739,7.0388963 41.842663,7.0912324 Z M 21.582257,9.2683155 c 2.385194,-0.02618 4.96728,0.4461292 7.614173,1.3371515 -3.772191,1.940306 -7.424751,4.614615 -10.699716,7.893316 -3.349738,3.35597 -6.006599,7.027221 -7.907025,10.75081 C 10.281879,28.357327 10.02018,27.440137 9.8133165,26.522951 8.5098077,20.726954 9.5017712,15.797062 12.629689,12.676622 c 2.258079,-2.254344 5.38849,-3.3559685 8.952568,-3.4083065 z m 33.079901,4.0376285 -1.512864,1.783283 c 1.251168,2.281763 1.745903,5.166673 1.458032,8.391791 0.651754,1.04804 1.253661,2.071153 1.774565,3.094269 1.09664,-5.192839 0.494733,-9.807451 -1.719733,-13.269343 z m -22.720392,5.008405 c -7.543137,0 -13.656904,6.162367 -13.656904,13.740401 0,2.67555 0.75145,5.140502 2.072398,7.237824 l 0.751448,-0.287866 c 0.130864,-0.787588 0.466074,-1.469249 1.010655,-2.02006 0.104665,-0.104676 0.233035,-0.20936 0.363886,-0.28787 -0.675432,-1.415662 -1.089162,-2.98959 -1.089162,-4.642028 0,-5.899423 4.740477,-10.672302 10.571361,-10.672302 1.656176,0 3.21141,0.393794 4.610873,1.101625 0.104665,-0.130864 0.183187,-0.261699 0.287867,-0.367623 0.544579,-0.549568 1.217518,-0.89102 1.968967,-0.9957 l 0.285376,-0.76017 c -2.099815,-1.284814 -4.536102,-2.046231 -7.176765,-2.046231 z m 16.06952,2.911081 -1.434357,1.704773 c 2.445009,2.909839 4.371608,6.004107 5.739915,9.046038 l -0.05486,0.130864 c -1.879244,4.169724 -4.74546,8.287111 -8.318265,11.826266 -5.238947,5.24518 -11.418765,8.864091 -17.41664,10.201246 C 22.04332,55.130316 18.07797,54.763936 15.0809,53.1115 l -1.796994,1.521589 c 2.370238,1.520342 5.508126,2.306686 8.740723,2.306686 1.667391,0 3.175271,-0.235535 4.999681,-0.655493 6.414098,-1.441833 12.983969,-5.270105 18.484616,-10.776985 3.251289,-3.251288 5.95924,-6.922539 7.91201,-10.724641 2.230664,6.607255 1.698545,12.795797 -2.072403,16.545557 -2.842538,2.858743 -7.300131,3.908029 -12.460571,3.09427 -0.965791,0.576983 -1.957753,1.127794 -2.949711,1.626271 2.190789,0.576982 4.276892,0.891021 6.257077,0.891021 4.329236,0 8.059057,-1.363327 10.718412,-4.011464 6.882661,-6.89637 4.561024,-20.584434 -4.902479,-31.702868 z m -4.360391,3.514232 -0.751447,0.287868 c -0.153288,0.786343 -0.490997,1.46925 -1.035579,2.018813 -0.104665,0.105919 -0.233036,0.210606 -0.363883,0.289117 0.675432,1.415663 1.091653,2.98959 1.091653,4.640781 0,5.900673 -4.742967,10.672304 -10.573852,10.672304 -1.657424,0 -3.211412,-0.392552 -4.612121,-1.10038 -0.104665,0.130851 -0.180696,0.261699 -0.285377,0.366376 -0.54458,0.550813 -1.218762,0.892266 -1.97021,0.996946 L 24.8647,43.671659 c 2.098571,1.284813 4.5361,2.044983 7.179258,2.044983 7.5394,0 13.656904,-6.162367 13.656904,-13.740401 0,-2.674306 -0.75394,-5.139256 -2.049967,-7.236579 z m -11.659277,1.048039 a 6.230785,6.2306604 0 0 0 -6.232158,6.214707 6.230785,6.2306604 0 0 0 6.232158,6.240882 6.230785,6.2306604 0 0 0 6.230909,-6.240882 6.230785,6.2306604 0 0 0 -6.230909,-6.214707 z M 24.51951,37.718647 c -0.444886,0 -0.889774,0.184435 -1.256149,0.524643 -0.5234,0.52464 -0.654246,1.284813 -0.392548,1.914137 l -3.560342,1.390738 -14.7348559,17.56867 0.3140388,0.314039 17.5362681,-14.762272 1.387003,-3.56657 c 0.209359,0.07851 0.444886,0.130878 0.680414,0.130878 0.44489,0 0.887284,-0.183189 1.227491,-0.524643 0.680412,-0.681659 0.680412,-1.809455 0,-2.491121 -0.314039,-0.340209 -0.756435,-0.498476 -1.20132,-0.498476 z m -1.588883,8.811751 -1.722222,1.441834 c 1.512865,1.310987 3.104238,2.491119 4.747955,3.540404 0.625579,-0.210605 1.925345,-0.735248 2.476157,-1.049285 -2.036257,-1.180132 -3.625139,-2.360271 -5.50189,-3.932953 z"
       id="path4" />
  </g>
</svg>
